<svg xmlns:dc="http://purl.org/dc/elements/1.1/" xmlns:cc="http://creativecommons.org/ns#" xmlns:rdf="http://www.w3.org/1999/02/22-rdf-syntax-ns#" xmlns:svg="http://www.w3.org/2000/svg" xmlns="http://www.w3.org/2000/svg" xml:space="preserve" id="svg2" version="1.1" viewBox="0 0 815.65 147.97"><metadata id="metadata8" fill="#000000"><rdf:RDF fill="#000000"><cc:Work rdf:about="" fill="#000000"><dc:format fill="#000000">image/svg+xml</dc:format><dc:type rdf:resource="http://purl.org/dc/dcmitype/StillImage" fill="#000000"/></cc:Work></rdf:RDF></metadata><defs id="defs6" fill="#000000"><clipPath id="clipPath18" clipPathUnits="userSpaceOnUse" fill="#000000"><path id="path16" d="M 0,118.957 H 656.305 V 0 H 0 Z" fill="#000000"/></clipPath></defs><g transform="matrix(1.3333333,0,0,-1.3333333,0,158.60933)" id="g10"><g id="g12"><g clip-path="url(#clipPath18)" id="g14"><g transform="translate(51.8682,86.0751)" id="g20"><path id="path22" style="fill:#004a97;fill-opacity:1;fill-rule:evenodd;stroke:none" d="m 0,0 c 6.823,7.429 18.336,10.444 18.336,10.444 l 10.45,2.661 H 2.697 c -4.297,0 -7.781,-3.483 -7.781,-7.781 V -9.353 C -4.216,-6.253 -2.68,-2.919 0,0"/></g><g transform="translate(69.2319,72.0195)" id="g24"><path id="path26" style="fill:#004a97;fill-opacity:1;fill-rule:evenodd;stroke:none" d="m 0,0 -22.448,-5.717 v -43.775 c 0,-0.405 0.041,-0.801 0.1,-1.19 21.566,5.494 55.262,14.076 58.228,14.83 7.049,1.796 9.429,5.342 8.605,9.612 -0.823,4.269 -3.42,7.828 -10.226,6.094 -6.805,-1.733 -10.516,-2.678 -27.932,-7.114 -21.354,-5.438 -28.3,15.89 -28.3,15.89 l 23.278,5.662 c 0,0 3.119,-4.714 9.596,-3.063 4.331,1.102 5.786,1.473 24.053,6.125 17.022,4.335 25.334,-3.604 28.922,-12.208 V 19.38 c 0,0.573 -0.066,1.13 -0.183,1.667 C 42.773,15.74 9.63,7.331 7.781,6.859 1.129,5.166 0,0 0,0"/></g><g transform="translate(113.7446,19.8193)" id="g28"><path id="path30" style="fill:#004a97;fill-opacity:1;fill-rule:evenodd;stroke:none" d="m 0,0 c -3.417,-0.87 -10.861,-2.766 -19.922,-5.073 h 31.505 c 4.297,0 7.781,3.483 7.781,7.781 v 13.65 C 16.181,8.929 9.615,2.449 0,0"/></g><g transform="translate(164.5625,34.1005)" id="g32"><path id="path34" style="fill:#004a97;fill-opacity:1;fill-rule:evenodd;stroke:none" d="m 0,0 h 38.035 c 11.524,0 18.909,6.409 18.909,12.621 0,5.21 -3.718,12.649 -18.909,12.649 H 20.633 c -4.685,0 -6.209,2.676 -6.209,2.676 l -16.805,0.13 c 0,0 1.953,-11.226 17.401,-11.226 h 20.208 c 4.923,0 6.241,-2.052 6.241,-4.229 0,-2.178 -2.113,-3.606 -7.212,-3.606 L 0,9.015 Z"/></g><g transform="translate(178.8457,64.9833)" id="g36"><path id="path38" style="fill:#004a97;fill-opacity:1;fill-rule:evenodd;stroke:none" d="m 0,0 h -16.906 c 0,0 0.432,5.886 6.802,8.981 5.693,2.767 14.033,2.246 14.033,2.246 H 42.661 V 1.684 H 5.613 C 0.801,1.684 0,0 0,0"/></g><g transform="translate(225.9976,61.6152)" id="g40"><path id="path42" style="fill:#004a97;fill-opacity:1;fill-rule:evenodd;stroke:none" d="m 0,0 h 14.595 v -10.665 c 0,-3.14 5.158,-7.298 13.471,-7.298 8.313,0 13.473,3.849 13.473,7.298 V 0 h 14.033 v -12.91 c 0,-5.156 -8.222,-14.605 -26.944,-14.605 C 9.906,-27.515 0,-18.741 0,-11.788 Z"/></g><path id="path44" style="fill:#004a97;fill-opacity:1;fill-rule:evenodd;stroke:none" d="m 225.998,65.545 h 14.595 V 76.21 h -14.595 z"/><path id="path46" style="fill:#004a97;fill-opacity:1;fill-rule:evenodd;stroke:none" d="m 267.555,65.545 h 13.961 V 76.21 h -13.961 z"/><path id="path48" style="fill:#004a97;fill-opacity:1;fill-rule:evenodd;stroke:none" d="m 287.183,65.545 h 14.595 V 76.21 h -14.595 z"/><path id="path50" style="fill:#004a97;fill-opacity:1;fill-rule:evenodd;stroke:none" d="m 307.952,65.545 h 55.01 V 76.21 h -55.01 z"/><path id="path52" style="fill:#004a97;fill-opacity:1;fill-rule:evenodd;stroke:none" d="m 287.183,34.101 h 14.595 v 27.515 h -14.595 z"/><path id="path54" style="fill:#004a97;fill-opacity:1;fill-rule:evenodd;stroke:none" d="m 328.16,34.101 h 14.595 V 61.616 H 328.16 Z"/><g transform="translate(368.5752,65.5448)" id="g56"><path id="path58" style="fill:#004a97;fill-opacity:1;fill-rule:evenodd;stroke:none" d="M 0,0 C 0,0 1.353,10.665 16.279,10.665 H 55.011 V 1.684 H 19.086 C 15.565,1.684 14.747,0 14.747,0 Z"/></g><g transform="translate(368.5752,61.6152)" id="g60"><path id="path62" style="fill:#004a97;fill-opacity:1;fill-rule:evenodd;stroke:none" d="m 0,0 v -16.84 c 0,-2.947 4.487,-10.675 11.788,-10.675 h 43.223 v 10.114 H 18.524 c -2.826,0 -3.929,3.03 -3.929,6.174 H 55.011 V -1.122 H 17.671 C 15.896,-1.122 14.595,0 14.595,0 Z"/></g><g transform="translate(491.9131,65.5448)" id="g64"><path id="path66" style="fill:#004a97;fill-opacity:1;fill-rule:evenodd;stroke:none" d="M 0,0 C 0,0 1.352,10.665 16.278,10.665 H 55.01 V 1.684 H 19.085 C 15.564,1.684 14.746,0 14.746,0 Z"/></g><g transform="translate(491.9131,61.6152)" id="g68"><path id="path70" style="fill:#004a97;fill-opacity:1;fill-rule:evenodd;stroke:none" d="m 0,0 v -16.84 c 0,-2.947 4.486,-10.675 11.787,-10.675 H 55.01 v 10.114 H 18.523 c -2.826,0 -3.929,3.03 -3.929,6.174 H 55.01 V -1.122 H 17.67 C 15.896,-1.122 14.594,0 14.594,0 Z"/></g><path id="path72" style="fill:#004a97;fill-opacity:1;fill-rule:evenodd;stroke:none" d="m 429.761,65.545 h 14.595 V 76.21 h -14.595 z"/><g transform="translate(430.3223,61.6152)" id="g74"><path id="path76" style="fill:#004a97;fill-opacity:1;fill-rule:evenodd;stroke:none" d="m 0,0 v -8.981 c 0,-5.457 5.686,-17.962 20.77,-17.962 h 33.679 v 8.98 H 24.698 c -5.094,0 -10.665,5.547 -10.665,10.105 l 0,7.858 z"/></g><g transform="translate(571.7773,65.5448)" id="g78"><path id="path80" style="fill:#004a97;fill-opacity:1;fill-rule:evenodd;stroke:none" d="m 0,0 h -16.278 c 0,0 4.846,10.665 18.523,10.665 H 38.171 V 1.684 H 2.807 C 1.501,1.684 0.104,1.019 0,0"/></g><g transform="translate(553.8154,61.0536)" id="g82"><path id="path84" style="fill:#004a97;fill-opacity:1;fill-rule:evenodd;stroke:none" d="m 0,0 h 15.155 c 0,0 -1.184,-5.572 0,-9.542 1.185,-3.971 3.582,-7.859 8.982,-7.859 h 31.996 v -9.552 H 20.769 c -6.85,0 -17.103,3.603 -19.647,10.675 C -1.874,-7.95 0,0 0,0"/></g><g transform="translate(176.0308,26.8749)" id="g86"><path id="path88" style="fill:#004a97;fill-opacity:1;fill-rule:nonzero;stroke:none" d="m 0,0 v -2.75 h -7.874 v -3.191 h 7.076 v -2.751 h -7.076 v -3.255 h 8.105 v -2.75 H -11.191 V 0 Z"/></g><g transform="translate(193.23,19.2743)" id="g90"><path id="path92" style="fill:#004a97;fill-opacity:1;fill-rule:nonzero;stroke:none" d="m 0,0 v -7.097 h -3.233 v 6.153 c 0,1.427 -0.84,2.308 -2.226,2.308 -1.617,-0.02 -2.583,-1.238 -2.583,-2.896 v -5.565 h -3.233 V 4.199 h 3.233 V 2.226 C -7.244,3.632 -5.9,4.304 -4.136,4.325 -1.617,4.325 0,2.646 0,0"/></g><g transform="translate(206.5444,18.7499)" id="g94"><path id="path96" style="fill:#004a97;fill-opacity:1;fill-rule:nonzero;stroke:none" d="M 0,0 C -0.042,1.49 -1.008,2.456 -2.499,2.456 -3.926,2.456 -4.892,1.49 -5.144,0 Z m 3.023,-1.911 h -8.104 c 0.378,-1.428 1.47,-2.268 2.918,-2.268 1.071,0 2.079,0.42 2.856,1.197 l 1.701,-1.721 c -1.134,-1.26 -2.793,-1.995 -4.83,-1.995 -3.611,0 -5.899,2.309 -5.899,5.731 0,3.487 2.372,5.795 5.815,5.795 3.969,0 5.816,-2.624 5.543,-6.739"/></g><g transform="translate(221.832,23.5995)" id="g98"><path id="path100" style="fill:#004a97;fill-opacity:1;fill-rule:nonzero;stroke:none" d="m 0,0 v -3.045 c -2.31,0.211 -3.737,-1.028 -3.737,-2.939 v -5.438 h -3.234 v 11.296 h 3.234 V -2.162 C -2.96,-0.777 -1.68,-0.021 0,0"/></g><g transform="translate(234.1167,18.1405)" id="g102"><path id="path104" style="fill:#004a97;fill-opacity:1;fill-rule:nonzero;stroke:none" d="M 0,0 C 0,1.742 -1.071,2.939 -2.646,2.939 -4.22,2.939 -5.291,1.722 -5.312,0 -5.291,-1.722 -4.241,-2.918 -2.646,-2.918 -1.071,-2.918 0,-1.722 0,0 M 3.212,5.333 V -4.913 c 0,-3.212 -2.414,-5.249 -6.025,-5.249 -1.911,0 -3.612,0.609 -4.914,1.49 l 1.197,2.268 c 1.029,-0.735 2.226,-1.133 3.507,-1.133 1.847,0 3.023,0.986 3.023,2.519 v 1.281 c -0.756,-1.05 -1.911,-1.638 -3.401,-1.638 -2.919,0 -4.934,2.184 -4.934,5.459 0,3.191 1.973,5.353 4.85,5.353 C -1.953,5.459 -0.777,4.85 0,3.801 v 1.532 z"/></g><path id="path106" style="fill:#004a97;fill-opacity:1;fill-rule:nonzero;stroke:none" d="m 246.675,12.178 h -3.233 v 11.296 h 3.233 z m 1.932,14.949 -2.667,-2.31 h -2.561 l 2.225,3.423 z"/><g transform="translate(259.4634,16.0409)" id="g108"><path id="path110" style="fill:#004a97;fill-opacity:1;fill-rule:nonzero;stroke:none" d="m 0,0 v 1.008 h -2.541 c -1.238,0 -1.847,-0.378 -1.847,-1.281 0,-0.861 0.672,-1.428 1.763,-1.428 1.365,0 2.436,0.735 2.625,1.701 m 0.021,-3.863 v 1.322 c -0.756,-0.944 -1.974,-1.469 -3.548,-1.469 -2.415,0 -3.885,1.469 -3.885,3.528 0,2.12 1.533,3.379 4.305,3.4 H 0 v 0.211 c 0,1.196 -0.798,1.889 -2.352,1.889 -1.007,0 -2.183,-0.336 -3.359,-0.987 l -1.008,2.226 c 1.68,0.84 3.129,1.302 5.102,1.302 3.024,0 4.766,-1.512 4.787,-4.053 l 0.021,-7.369 z"/></g><g transform="translate(282.1855,17.9306)" id="g112"><path id="path114" style="fill:#004a97;fill-opacity:1;fill-rule:nonzero;stroke:none" d="m 0,0 c 0,-1.47 -1.008,-2.52 -2.436,-2.52 -1.406,0 -2.414,1.05 -2.414,2.52 0,1.448 1.008,2.478 2.414,2.478 C -1.008,2.478 0,1.448 0,0"/></g><g transform="translate(304.0879,24.1034)" id="g116"><path id="path118" style="fill:#004a97;fill-opacity:1;fill-rule:nonzero;stroke:none" d="m 0,0 c -2.52,0 -4.472,-1.953 -4.472,-4.514 0,-2.562 1.952,-4.535 4.472,-4.535 1.323,0 2.771,0.672 3.821,1.721 l 1.953,-2.12 c -1.554,-1.596 -3.8,-2.624 -5.942,-2.624 -4.388,0 -7.706,3.254 -7.706,7.515 0,4.243 3.381,7.434 7.832,7.434 2.121,0 4.346,-0.945 5.795,-2.436 L 3.821,-1.91 C 2.813,-0.756 1.365,0 0,0"/></g><g transform="translate(316.9199,17.7831)" id="g120"><path id="path122" style="fill:#004a97;fill-opacity:1;fill-rule:nonzero;stroke:none" d="m 0,0 c 0,-1.848 1.154,-3.107 2.834,-3.107 1.659,0 2.814,1.259 2.814,3.107 0,1.848 -1.155,3.107 -2.814,3.107 C 1.154,3.107 0,1.848 0,0 m 8.881,0.043 c 0,-3.443 -2.436,-5.774 -6.047,-5.774 -3.632,0 -6.067,2.331 -6.067,5.774 0,3.464 2.435,5.752 6.067,5.752 3.611,0 6.047,-2.288 6.047,-5.752"/></g><g transform="translate(350.1172,19.2743)" id="g124"><path id="path126" style="fill:#004a97;fill-opacity:1;fill-rule:nonzero;stroke:none" d="m 0,0 v -7.097 h -3.213 v 6.153 c 0,1.448 -0.84,2.308 -2.183,2.308 -1.553,-0.02 -2.499,-1.238 -2.499,-2.876 v -5.585 h -3.212 v 6.153 c 0,1.448 -0.84,2.308 -2.163,2.308 -1.574,-0.02 -2.519,-1.238 -2.519,-2.876 v -5.585 h -3.233 V 4.199 h 3.233 V 2.247 c 0.798,1.385 2.121,2.057 3.821,2.078 1.911,0 3.276,-0.966 3.822,-2.603 0.734,1.742 2.162,2.582 4.073,2.603 C -1.574,4.325 0,2.646 0,0"/></g><g transform="translate(366.793,23.4736)" id="g128"><path id="path130" style="fill:#004a97;fill-opacity:1;fill-rule:nonzero;stroke:none" d="m 0,0 v -11.296 h -3.213 v 1.994 c -0.777,-1.427 -2.078,-2.12 -3.779,-2.12 -2.498,0 -4.073,1.659 -4.073,4.325 V 0 h 3.233 v -6.173 c 0,-1.428 0.818,-2.289 2.121,-2.289 1.553,0.022 2.498,1.239 2.498,2.877 V 0 Z"/></g><g transform="translate(384.3477,19.2743)" id="g132"><path id="path134" style="fill:#004a97;fill-opacity:1;fill-rule:nonzero;stroke:none" d="m 0,0 v -7.097 h -3.232 v 6.153 c 0,1.427 -0.84,2.308 -2.227,2.308 -1.616,-0.02 -2.582,-1.238 -2.582,-2.896 v -5.565 h -3.233 V 4.199 h 3.233 V 2.226 c 0.798,1.406 2.142,2.078 3.905,2.099 C -1.616,4.325 0,2.646 0,0"/></g><g transform="translate(393.4844,26.6855)" id="g136"><path id="path138" style="fill:#004a97;fill-opacity:1;fill-rule:nonzero;stroke:none" d="m 0,0 c 0,-0.924 -0.65,-1.616 -1.574,-1.616 -0.924,0 -1.575,0.692 -1.575,1.616 0,0.945 0.651,1.617 1.575,1.617 C -0.65,1.617 0,0.945 0,0 m 0.042,-14.508 h -3.233 v 11.296 h 3.233 z"/></g><g transform="translate(404.7402,20.828)" id="g140"><path id="path142" style="fill:#004a97;fill-opacity:1;fill-rule:nonzero;stroke:none" d="m 0,0 c -1.574,0 -2.688,-1.218 -2.688,-3.023 0,-1.827 1.114,-3.066 2.688,-3.066 1.154,0 2.058,0.441 2.625,1.323 L 4.85,-6.277 c -0.945,-1.576 -2.708,-2.499 -5.018,-2.499 -3.422,0 -5.753,2.309 -5.753,5.731 0,3.465 2.331,5.795 5.795,5.795 2.163,0 3.884,-0.86 4.892,-2.372 L 2.582,-1.197 C 1.974,-0.441 1.113,0.021 0,0"/></g><g transform="translate(420.9941,16.0409)" id="g144"><path id="path146" style="fill:#004a97;fill-opacity:1;fill-rule:nonzero;stroke:none" d="m 0,0 v 1.008 h -2.541 c -1.238,0 -1.848,-0.378 -1.848,-1.281 0,-0.861 0.672,-1.428 1.764,-1.428 1.365,0 2.436,0.735 2.625,1.701 m 0.021,-3.863 v 1.322 c -0.756,-0.944 -1.974,-1.469 -3.548,-1.469 -2.415,0 -3.885,1.469 -3.885,3.528 0,2.12 1.533,3.379 4.305,3.4 H 0 v 0.211 c 0,1.196 -0.799,1.889 -2.352,1.889 -1.007,0 -2.183,-0.336 -3.359,-0.987 l -1.008,2.226 c 1.68,0.84 3.128,1.302 5.102,1.302 3.023,0 4.765,-1.512 4.787,-4.053 l 0.021,-7.369 z"/></g><g transform="translate(435.085,20.828)" id="g148"><path id="path150" style="fill:#004a97;fill-opacity:1;fill-rule:nonzero;stroke:none" d="m 0,0 c -1.575,0 -2.688,-1.218 -2.688,-3.023 0,-1.827 1.113,-3.066 2.688,-3.066 1.155,0 2.058,0.441 2.624,1.323 l 2.227,-1.511 c -0.946,-1.576 -2.709,-2.499 -5.019,-2.499 -3.423,0 -5.753,2.309 -5.753,5.731 0,3.465 2.33,5.795 5.795,5.795 2.162,0 3.885,-0.86 4.893,-2.372 L 2.583,-1.197 C 1.974,-0.441 1.112,0.021 0,0"/></g><g transform="translate(448.2939,26.6855)" id="g152"><path id="path154" style="fill:#004a97;fill-opacity:1;fill-rule:nonzero;stroke:none" d="m 0,0 c 0,-0.924 -0.651,-1.616 -1.575,-1.616 -0.924,0 -1.574,0.692 -1.574,1.616 0,0.945 0.65,1.617 1.574,1.617 C -0.651,1.617 0,0.945 0,0 m 0.042,-14.508 h -3.233 v 11.296 h 3.233 z"/></g><g transform="translate(463.2451,27.1054)" id="g156"><path id="path158" style="fill:#004a97;fill-opacity:1;fill-rule:nonzero;stroke:none" d="m 0,0 -2.667,-2.309 h -2.561 l 2.225,3.422 z m -6.383,-9.322 c 0,-1.848 1.155,-3.108 2.835,-3.108 1.658,0 2.813,1.26 2.813,3.108 0,1.847 -1.155,3.107 -2.813,3.107 -1.68,0 -2.835,-1.26 -2.835,-3.107 m 8.882,0.043 c 0,-3.444 -2.436,-5.775 -6.047,-5.775 -3.633,0 -6.068,2.331 -6.068,5.775 0,3.464 2.435,5.752 6.068,5.752 3.611,0 6.047,-2.288 6.047,-5.752"/></g><g transform="translate(482.3125,19.2743)" id="g160"><path id="path162" style="fill:#004a97;fill-opacity:1;fill-rule:nonzero;stroke:none" d="m 0,0 v -7.097 h -3.234 v 6.153 c 0,1.427 -0.84,2.308 -2.225,2.308 -1.617,-0.02 -2.583,-1.238 -2.583,-2.896 v -5.565 h -3.233 V 4.199 h 3.233 V 2.226 C -7.244,3.632 -5.9,4.304 -4.137,4.325 -1.617,4.325 0,2.646 0,0"/></g><g transform="translate(501.8437,17.9306)" id="g164"><path id="path166" style="fill:#004a97;fill-opacity:1;fill-rule:nonzero;stroke:none" d="m 0,0 c 0,-1.47 -1.008,-2.52 -2.436,-2.52 -1.407,0 -2.415,1.05 -2.415,2.52 0,1.448 1.008,2.478 2.415,2.478 C -1.008,2.478 0,1.448 0,0"/></g><g transform="translate(523.7451,24.1034)" id="g168"><path id="path170" style="fill:#004a97;fill-opacity:1;fill-rule:nonzero;stroke:none" d="m 0,0 c -2.52,0 -4.472,-1.953 -4.472,-4.514 0,-2.562 1.952,-4.535 4.472,-4.535 1.323,0 2.771,0.672 3.821,1.721 l 1.953,-2.12 c -1.554,-1.596 -3.8,-2.624 -5.942,-2.624 -4.388,0 -7.706,3.254 -7.706,7.515 0,4.243 3.381,7.434 7.832,7.434 2.121,0 4.346,-0.945 5.795,-2.436 L 3.821,-1.91 C 2.813,-0.756 1.364,0 0,0"/></g><g transform="translate(536.5771,17.7831)" id="g172"><path id="path174" style="fill:#004a97;fill-opacity:1;fill-rule:nonzero;stroke:none" d="m 0,0 c 0,-1.848 1.155,-3.107 2.835,-3.107 1.658,0 2.812,1.259 2.812,3.107 0,1.848 -1.154,3.107 -2.812,3.107 C 1.155,3.107 0,1.848 0,0 m 8.882,0.043 c 0,-3.443 -2.436,-5.774 -6.047,-5.774 -3.633,0 -6.068,2.331 -6.068,5.774 0,3.464 2.435,5.752 6.068,5.752 3.611,0 6.047,-2.288 6.047,-5.752"/></g><g transform="translate(562.0273,19.2743)" id="g176"><path id="path178" style="fill:#004a97;fill-opacity:1;fill-rule:nonzero;stroke:none" d="m 0,0 v -7.097 h -3.234 v 6.153 c 0,1.427 -0.84,2.308 -2.225,2.308 -1.617,-0.02 -2.583,-1.238 -2.583,-2.896 v -5.565 h -3.233 V 4.199 h 3.233 V 2.226 C -7.244,3.632 -5.9,4.304 -4.137,4.325 -1.617,4.325 0,2.646 0,0"/></g><g transform="translate(574.9648,12.8075)" id="g180"><path id="path182" style="fill:#004a97;fill-opacity:1;fill-rule:nonzero;stroke:none" d="m 0,0 c -0.84,-0.483 -1.891,-0.776 -2.939,-0.776 -2.016,0 -3.549,1.154 -3.549,3.484 v 5.229 h -1.575 v 2.225 h 1.575 v 3.108 h 3.213 v -3.108 h 3.064 V 7.915 h -3.064 v -4.66 c 0,-0.945 0.398,-1.323 1.091,-1.303 0.42,0 0.924,0.148 1.512,0.42 z"/></g><g transform="translate(587.0391,23.5995)" id="g184"><path id="path186" style="fill:#004a97;fill-opacity:1;fill-rule:nonzero;stroke:none" d="m 0,0 v -3.045 c -2.31,0.211 -3.737,-1.028 -3.737,-2.939 v -5.438 h -3.234 v 11.296 h 3.234 V -2.162 C -2.961,-0.777 -1.68,-0.021 0,0"/></g><g transform="translate(594.2217,17.7831)" id="g188"><path id="path190" style="fill:#004a97;fill-opacity:1;fill-rule:nonzero;stroke:none" d="m 0,0 c 0,-1.848 1.155,-3.107 2.835,-3.107 1.658,0 2.812,1.259 2.812,3.107 0,1.848 -1.154,3.107 -2.812,3.107 C 1.155,3.107 0,1.848 0,0 m 8.882,0.043 c 0,-3.443 -2.436,-5.774 -6.047,-5.774 -3.633,0 -6.068,2.331 -6.068,5.774 0,3.464 2.435,5.752 6.068,5.752 3.611,0 6.047,-2.288 6.047,-5.752"/></g><path id="path192" style="fill:#004a97;fill-opacity:1;fill-rule:nonzero;stroke:none" d="m 611.734,12.178 h -3.232 v 15.579 h 3.232 z"/></g></g></g></svg>